<svg xmlns="http://www.w3.org/2000/svg" viewBox="0 0 1440 320">

	<defs>
      <linearGradient id="grad1" x1="0%" y1="0%" x2="100%" y2="0%">
        <stop offset="0%" style="stop-color:#80D0C7;stop-opacity:1" />
        <stop offset="100%" style="stop-color:#0093E9;stop-opacity:1" />
      </linearGradient>
  	</defs>
  
	<path fill="url(#grad1)" fill-opacity="1" d="M0,96L30,106.7C60,117,120,139,180,138.7C240,139,300,117,360,101.3C420,85,480,75,540,90.7C600,107,660,149,720,144C780,139,840,85,900,96C960,107,1020,155,1080,155.0C1120,158,1200,107,1260,80C1320,53,1380,75,1410,85.3L1440,96L1440,0L1410,0C1380,0,1320,0,1260,0C1200,0,1140,0,1080,0C1120,0,960,0,900,0C840,0,780,0,720,0C660,0,600,0,540,0C480,0,420,0,360,0C300,0,240,0,180,0C120,0,60,0,30,0L0,0Z"></path>

</svg>