<svg xmlns="http://www.w3.org/2000/svg" viewBox="0 0 1440 320">

	<defs>
      <linearGradient id="grad1" x1="0%" y1="0%" x2="100%" y2="0%">
        <stop offset="0%" style="stop-color:#FBDA61;stop-opacity:1" />
        <stop offset="100%" style="stop-color:#FF5ACD;stop-opacity:1" />
      </linearGradient>
  	</defs>
  
  <path fill="url(#grad1)" fill-opacity="1" d="M0,96L30,106.7C60,117,120,139,180,138.7C240,139,300,117,360,101.3C420,85,480,75,540,90.7C600,107,660,149,720,144C780,139,840,85,900,96C960,107,1020,155,1080,155.0C1120,158,1200,107,1260,80C1320,53,1380,75,1410,85.3L1440,96L1440,0L1410,0C1380,0,1320,0,1260,0C1200,0,1140,0,1080,0C1120,0,960,0,900,0C840,0,780,0,720,0C660,0,600,0,540,0C480,0,420,0,360,0C300,0,240,0,180,0C120,0,60,0,30,0L0,0Z"></path>
	<!-- <path fill="url(#grad1)" fill-opacity="1" d="M0,192L21.8,170.7C43.6,149,87,107,131,101.3C174.5,96,218,128,262,122.7C305.5,117,349,75,393,64C436.4,53,480,75,524,80C567.3,85,611,75,655,64C698.2,53,742,43,785,48C829.1,53,873,75,916,90.7C960,107,1004,117,1047,106.7C1090.9,96,1135,64,1178,42.7C1221.8,21,1265,11,1309,26.7C1352.7,43,1396,85,1418,106.7L1440,128L1440,0L1418.2,0C1396.4,0,1353,0,1309,0C1265.5,0,1222,0,1178,0C1134.5,0,1091,0,1047,0C1003.6,0,960,0,916,0C872.7,0,829,0,785,0C741.8,0,698,0,655,0C610.9,0,567,0,524,0C480,0,436,0,393,0C349.1,0,305,0,262,0C218.2,0,175,0,131,0C87.3,0,44,0,22,0L0,0Z"></path> -->

</svg>